<mxfile host="app.diagrams.net" modified="2022-11-29T10:15:04.162Z" agent="5.0 (Macintosh; Intel Mac OS X 10_15_7) AppleWebKit/537.36 (KHTML, like Gecko) Chrome/107.0.0.0 Safari/537.36" etag="o6O3LtIdIGdTEbwjLFml" version="20.6.0" type="github">
  <diagram id="SeQiOBvVhu0JGIYYM5fR" name="Page-1">
    <mxGraphModel dx="1426" dy="1869" grid="1" gridSize="10" guides="1" tooltips="1" connect="1" arrows="1" fold="1" page="1" pageScale="1" pageWidth="850" pageHeight="1100" math="0" shadow="0">
      <root>
        <mxCell id="0" />
        <mxCell id="1" parent="0" />
        <mxCell id="IKFUWI9jPA2bsVKVW1Me-83" value="" style="shape=table;startSize=0;container=1;collapsible=0;childLayout=tableLayout;" vertex="1" parent="1">
          <mxGeometry x="540" y="170" width="420" height="40" as="geometry" />
        </mxCell>
        <mxCell id="IKFUWI9jPA2bsVKVW1Me-84" value="" style="shape=tableRow;horizontal=0;startSize=0;swimlaneHead=0;swimlaneBody=0;top=0;left=0;bottom=0;right=0;collapsible=0;dropTarget=0;fillColor=none;points=[[0,0.5],[1,0.5]];portConstraint=eastwest;" vertex="1" parent="IKFUWI9jPA2bsVKVW1Me-83">
          <mxGeometry width="420" height="40" as="geometry" />
        </mxCell>
        <mxCell id="IKFUWI9jPA2bsVKVW1Me-85" value="1" style="shape=partialRectangle;html=1;whiteSpace=wrap;connectable=0;overflow=hidden;fillColor=none;top=0;left=0;bottom=0;right=0;pointerEvents=1;" vertex="1" parent="IKFUWI9jPA2bsVKVW1Me-84">
          <mxGeometry width="60" height="40" as="geometry">
            <mxRectangle width="60" height="40" as="alternateBounds" />
          </mxGeometry>
        </mxCell>
        <mxCell id="IKFUWI9jPA2bsVKVW1Me-86" value="0" style="shape=partialRectangle;html=1;whiteSpace=wrap;connectable=0;overflow=hidden;fillColor=none;top=0;left=0;bottom=0;right=0;pointerEvents=1;" vertex="1" parent="IKFUWI9jPA2bsVKVW1Me-84">
          <mxGeometry x="60" width="60" height="40" as="geometry">
            <mxRectangle width="60" height="40" as="alternateBounds" />
          </mxGeometry>
        </mxCell>
        <mxCell id="IKFUWI9jPA2bsVKVW1Me-87" value="..." style="shape=partialRectangle;html=1;whiteSpace=wrap;connectable=0;overflow=hidden;fillColor=none;top=0;left=0;bottom=0;right=0;pointerEvents=1;" vertex="1" parent="IKFUWI9jPA2bsVKVW1Me-84">
          <mxGeometry x="120" width="60" height="40" as="geometry">
            <mxRectangle width="60" height="40" as="alternateBounds" />
          </mxGeometry>
        </mxCell>
        <mxCell id="IKFUWI9jPA2bsVKVW1Me-88" value="bitmap&lt;br&gt;2MB" style="shape=partialRectangle;html=1;whiteSpace=wrap;connectable=0;overflow=hidden;fillColor=none;top=0;left=0;bottom=0;right=0;pointerEvents=1;" vertex="1" parent="IKFUWI9jPA2bsVKVW1Me-84">
          <mxGeometry x="180" width="60" height="40" as="geometry">
            <mxRectangle width="60" height="40" as="alternateBounds" />
          </mxGeometry>
        </mxCell>
        <mxCell id="IKFUWI9jPA2bsVKVW1Me-89" value="..." style="shape=partialRectangle;html=1;whiteSpace=wrap;connectable=0;overflow=hidden;fillColor=none;top=0;left=0;bottom=0;right=0;pointerEvents=1;" vertex="1" parent="IKFUWI9jPA2bsVKVW1Me-84">
          <mxGeometry x="240" width="60" height="40" as="geometry">
            <mxRectangle width="60" height="40" as="alternateBounds" />
          </mxGeometry>
        </mxCell>
        <mxCell id="IKFUWI9jPA2bsVKVW1Me-90" value="1" style="shape=partialRectangle;html=1;whiteSpace=wrap;connectable=0;overflow=hidden;fillColor=none;top=0;left=0;bottom=0;right=0;pointerEvents=1;" vertex="1" parent="IKFUWI9jPA2bsVKVW1Me-84">
          <mxGeometry x="300" width="60" height="40" as="geometry">
            <mxRectangle width="60" height="40" as="alternateBounds" />
          </mxGeometry>
        </mxCell>
        <mxCell id="IKFUWI9jPA2bsVKVW1Me-94" value="0" style="shape=partialRectangle;html=1;whiteSpace=wrap;connectable=0;overflow=hidden;fillColor=none;top=0;left=0;bottom=0;right=0;pointerEvents=1;" vertex="1" parent="IKFUWI9jPA2bsVKVW1Me-84">
          <mxGeometry x="360" width="60" height="40" as="geometry">
            <mxRectangle width="60" height="40" as="alternateBounds" />
          </mxGeometry>
        </mxCell>
        <mxCell id="IKFUWI9jPA2bsVKVW1Me-96" value="" style="shape=table;startSize=0;container=1;collapsible=0;childLayout=tableLayout;movable=1;resizable=1;rotatable=1;deletable=1;editable=1;connectable=1;" vertex="1" parent="1">
          <mxGeometry x="540" y="-50" width="420" height="40" as="geometry" />
        </mxCell>
        <mxCell id="IKFUWI9jPA2bsVKVW1Me-97" value="" style="shape=tableRow;horizontal=0;startSize=0;swimlaneHead=0;swimlaneBody=0;top=0;left=0;bottom=0;right=0;collapsible=0;dropTarget=0;fillColor=none;points=[[0,0.5],[1,0.5]];portConstraint=eastwest;movable=1;resizable=1;rotatable=1;deletable=1;editable=1;connectable=1;" vertex="1" parent="IKFUWI9jPA2bsVKVW1Me-96">
          <mxGeometry width="420" height="40" as="geometry" />
        </mxCell>
        <mxCell id="IKFUWI9jPA2bsVKVW1Me-98" value="0" style="shape=partialRectangle;html=1;whiteSpace=wrap;connectable=1;overflow=hidden;fillColor=#dae8fc;top=0;left=0;bottom=0;right=0;pointerEvents=1;strokeColor=#6c8ebf;movable=1;resizable=1;rotatable=1;deletable=1;editable=1;" vertex="1" parent="IKFUWI9jPA2bsVKVW1Me-97">
          <mxGeometry width="60" height="40" as="geometry">
            <mxRectangle width="60" height="40" as="alternateBounds" />
          </mxGeometry>
        </mxCell>
        <mxCell id="IKFUWI9jPA2bsVKVW1Me-99" value="1" style="shape=partialRectangle;html=1;whiteSpace=wrap;connectable=1;overflow=hidden;fillColor=#dae8fc;top=0;left=0;bottom=0;right=0;pointerEvents=1;strokeColor=#6c8ebf;movable=1;resizable=1;rotatable=1;deletable=1;editable=1;" vertex="1" parent="IKFUWI9jPA2bsVKVW1Me-97">
          <mxGeometry x="60" width="60" height="40" as="geometry">
            <mxRectangle width="60" height="40" as="alternateBounds" />
          </mxGeometry>
        </mxCell>
        <mxCell id="IKFUWI9jPA2bsVKVW1Me-100" value="..." style="shape=partialRectangle;html=1;whiteSpace=wrap;connectable=1;overflow=hidden;fillColor=none;top=0;left=0;bottom=0;right=0;pointerEvents=1;movable=1;resizable=1;rotatable=1;deletable=1;editable=1;" vertex="1" parent="IKFUWI9jPA2bsVKVW1Me-97">
          <mxGeometry x="120" width="60" height="40" as="geometry">
            <mxRectangle width="60" height="40" as="alternateBounds" />
          </mxGeometry>
        </mxCell>
        <mxCell id="IKFUWI9jPA2bsVKVW1Me-101" value="mspans" style="shape=partialRectangle;html=1;whiteSpace=wrap;connectable=1;overflow=hidden;fillColor=none;top=0;left=0;bottom=0;right=0;pointerEvents=1;movable=1;resizable=1;rotatable=1;deletable=1;editable=1;" vertex="1" parent="IKFUWI9jPA2bsVKVW1Me-97">
          <mxGeometry x="180" width="60" height="40" as="geometry">
            <mxRectangle width="60" height="40" as="alternateBounds" />
          </mxGeometry>
        </mxCell>
        <mxCell id="IKFUWI9jPA2bsVKVW1Me-102" value="..." style="shape=partialRectangle;html=1;whiteSpace=wrap;connectable=1;overflow=hidden;fillColor=none;top=0;left=0;bottom=0;right=0;pointerEvents=1;movable=1;resizable=1;rotatable=1;deletable=1;editable=1;" vertex="1" parent="IKFUWI9jPA2bsVKVW1Me-97">
          <mxGeometry x="240" width="60" height="40" as="geometry">
            <mxRectangle width="60" height="40" as="alternateBounds" />
          </mxGeometry>
        </mxCell>
        <mxCell id="IKFUWI9jPA2bsVKVW1Me-103" value="8190" style="shape=partialRectangle;html=1;whiteSpace=wrap;connectable=1;overflow=hidden;fillColor=#d5e8d4;top=0;left=0;bottom=0;right=0;pointerEvents=1;strokeColor=#82b366;movable=1;resizable=1;rotatable=1;deletable=1;editable=1;" vertex="1" parent="IKFUWI9jPA2bsVKVW1Me-97">
          <mxGeometry x="300" width="60" height="40" as="geometry">
            <mxRectangle width="60" height="40" as="alternateBounds" />
          </mxGeometry>
        </mxCell>
        <mxCell id="IKFUWI9jPA2bsVKVW1Me-104" value="8191" style="shape=partialRectangle;html=1;whiteSpace=wrap;connectable=1;overflow=hidden;fillColor=#fff2cc;top=0;left=0;bottom=0;right=0;pointerEvents=1;strokeColor=#d6b656;movable=1;resizable=1;rotatable=1;deletable=1;editable=1;" vertex="1" parent="IKFUWI9jPA2bsVKVW1Me-97">
          <mxGeometry x="360" width="60" height="40" as="geometry">
            <mxRectangle width="60" height="40" as="alternateBounds" />
          </mxGeometry>
        </mxCell>
        <mxCell id="IKFUWI9jPA2bsVKVW1Me-142" value="" style="shape=table;startSize=0;container=1;collapsible=0;childLayout=tableLayout;movable=1;resizable=1;rotatable=1;deletable=1;editable=1;connectable=1;" vertex="1" parent="1">
          <mxGeometry x="540" y="60" width="420" height="40" as="geometry" />
        </mxCell>
        <mxCell id="IKFUWI9jPA2bsVKVW1Me-143" value="" style="shape=tableRow;horizontal=0;startSize=0;swimlaneHead=0;swimlaneBody=0;top=0;left=0;bottom=0;right=0;collapsible=0;dropTarget=0;fillColor=none;points=[[0,0.5],[1,0.5]];portConstraint=eastwest;movable=1;resizable=1;rotatable=1;deletable=1;editable=1;connectable=1;" vertex="1" parent="IKFUWI9jPA2bsVKVW1Me-142">
          <mxGeometry width="420" height="40" as="geometry" />
        </mxCell>
        <mxCell id="IKFUWI9jPA2bsVKVW1Me-144" value="0" style="shape=partialRectangle;html=1;whiteSpace=wrap;connectable=1;overflow=hidden;fillColor=#dae8fc;top=0;left=0;bottom=0;right=0;pointerEvents=1;strokeColor=#6c8ebf;movable=1;resizable=1;rotatable=1;deletable=1;editable=1;" vertex="1" parent="IKFUWI9jPA2bsVKVW1Me-143">
          <mxGeometry width="60" height="40" as="geometry">
            <mxRectangle width="60" height="40" as="alternateBounds" />
          </mxGeometry>
        </mxCell>
        <mxCell id="IKFUWI9jPA2bsVKVW1Me-145" value="1" style="shape=partialRectangle;html=1;whiteSpace=wrap;connectable=1;overflow=hidden;fillColor=#dae8fc;top=0;left=0;bottom=0;right=0;pointerEvents=1;strokeColor=#6c8ebf;movable=1;resizable=1;rotatable=1;deletable=1;editable=1;" vertex="1" parent="IKFUWI9jPA2bsVKVW1Me-143">
          <mxGeometry x="60" width="60" height="40" as="geometry">
            <mxRectangle width="60" height="40" as="alternateBounds" />
          </mxGeometry>
        </mxCell>
        <mxCell id="IKFUWI9jPA2bsVKVW1Me-146" value="..." style="shape=partialRectangle;html=1;whiteSpace=wrap;connectable=1;overflow=hidden;fillColor=none;top=0;left=0;bottom=0;right=0;pointerEvents=1;movable=1;resizable=1;rotatable=1;deletable=1;editable=1;" vertex="1" parent="IKFUWI9jPA2bsVKVW1Me-143">
          <mxGeometry x="120" width="60" height="40" as="geometry">
            <mxRectangle width="60" height="40" as="alternateBounds" />
          </mxGeometry>
        </mxCell>
        <mxCell id="IKFUWI9jPA2bsVKVW1Me-147" value="pages&lt;br&gt;64MB" style="shape=partialRectangle;html=1;whiteSpace=wrap;connectable=1;overflow=hidden;fillColor=none;top=0;left=0;bottom=0;right=0;pointerEvents=1;movable=1;resizable=1;rotatable=1;deletable=1;editable=1;" vertex="1" parent="IKFUWI9jPA2bsVKVW1Me-143">
          <mxGeometry x="180" width="60" height="40" as="geometry">
            <mxRectangle width="60" height="40" as="alternateBounds" />
          </mxGeometry>
        </mxCell>
        <mxCell id="IKFUWI9jPA2bsVKVW1Me-148" value="..." style="shape=partialRectangle;html=1;whiteSpace=wrap;connectable=1;overflow=hidden;fillColor=none;top=0;left=0;bottom=0;right=0;pointerEvents=1;movable=1;resizable=1;rotatable=1;deletable=1;editable=1;" vertex="1" parent="IKFUWI9jPA2bsVKVW1Me-143">
          <mxGeometry x="240" width="60" height="40" as="geometry">
            <mxRectangle width="60" height="40" as="alternateBounds" />
          </mxGeometry>
        </mxCell>
        <mxCell id="IKFUWI9jPA2bsVKVW1Me-149" value="8190" style="shape=partialRectangle;html=1;whiteSpace=wrap;connectable=1;overflow=hidden;fillColor=#d5e8d4;top=0;left=0;bottom=0;right=0;pointerEvents=1;strokeColor=#82b366;movable=1;resizable=1;rotatable=1;deletable=1;editable=1;" vertex="1" parent="IKFUWI9jPA2bsVKVW1Me-143">
          <mxGeometry x="300" width="60" height="40" as="geometry">
            <mxRectangle width="60" height="40" as="alternateBounds" />
          </mxGeometry>
        </mxCell>
        <mxCell id="IKFUWI9jPA2bsVKVW1Me-150" value="8191" style="shape=partialRectangle;html=1;whiteSpace=wrap;connectable=1;overflow=hidden;fillColor=#fff2cc;top=0;left=0;bottom=0;right=0;pointerEvents=1;strokeColor=#d6b656;movable=1;resizable=1;rotatable=1;deletable=1;editable=1;" vertex="1" parent="IKFUWI9jPA2bsVKVW1Me-143">
          <mxGeometry x="360" width="60" height="40" as="geometry">
            <mxRectangle width="60" height="40" as="alternateBounds" />
          </mxGeometry>
        </mxCell>
        <mxCell id="IKFUWI9jPA2bsVKVW1Me-152" value="" style="endArrow=classic;html=1;rounded=0;exitX=0.14;exitY=1.075;exitDx=0;exitDy=0;exitPerimeter=0;movable=1;resizable=1;rotatable=1;deletable=1;editable=1;connectable=1;" edge="1" parent="1">
          <mxGeometry width="50" height="50" relative="1" as="geometry">
            <mxPoint x="869" as="sourcePoint" />
            <mxPoint x="869.2" y="57" as="targetPoint" />
          </mxGeometry>
        </mxCell>
        <mxCell id="IKFUWI9jPA2bsVKVW1Me-158" value="&amp;nbsp;1 span = 1 pages" style="edgeLabel;html=1;align=center;verticalAlign=middle;resizable=0;points=[];" vertex="1" connectable="0" parent="IKFUWI9jPA2bsVKVW1Me-152">
          <mxGeometry x="-0.228" y="1" relative="1" as="geometry">
            <mxPoint as="offset" />
          </mxGeometry>
        </mxCell>
        <mxCell id="IKFUWI9jPA2bsVKVW1Me-153" value="" style="endArrow=classic;html=1;rounded=0;exitX=0.14;exitY=1.075;exitDx=0;exitDy=0;exitPerimeter=0;movable=1;resizable=1;rotatable=1;deletable=1;editable=1;connectable=1;" edge="1" parent="1">
          <mxGeometry width="50" height="50" relative="1" as="geometry">
            <mxPoint x="927" as="sourcePoint" />
            <mxPoint x="927.1999999999998" y="57" as="targetPoint" />
          </mxGeometry>
        </mxCell>
        <mxCell id="IKFUWI9jPA2bsVKVW1Me-154" value="" style="endArrow=classic;html=1;rounded=0;exitX=0.14;exitY=1.075;exitDx=0;exitDy=0;exitPerimeter=0;movable=1;resizable=1;rotatable=1;deletable=1;editable=1;connectable=1;" edge="1" parent="1">
          <mxGeometry width="50" height="50" relative="1" as="geometry">
            <mxPoint x="600" as="sourcePoint" />
            <mxPoint x="600.1999999999998" y="57" as="targetPoint" />
          </mxGeometry>
        </mxCell>
        <mxCell id="IKFUWI9jPA2bsVKVW1Me-157" value="1 span = 2 pages" style="edgeLabel;html=1;align=center;verticalAlign=middle;resizable=0;points=[];" vertex="1" connectable="0" parent="IKFUWI9jPA2bsVKVW1Me-154">
          <mxGeometry x="-0.2632" relative="1" as="geometry">
            <mxPoint as="offset" />
          </mxGeometry>
        </mxCell>
        <mxCell id="IKFUWI9jPA2bsVKVW1Me-156" value="" style="rounded=0;whiteSpace=wrap;html=1;" vertex="1" parent="1">
          <mxGeometry x="140" y="-260" width="330" height="40" as="geometry" />
        </mxCell>
      </root>
    </mxGraphModel>
  </diagram>
</mxfile>
